<svg width="320.5017639160156px" height="121.60000610351562px" xmlns="http://www.w3.org/2000/svg" viewBox="89.7491180419922 14.199996948242188 320.5017639160156 121.60000610351562" style="background: rgba(0, 0, 0, 0);" preserveAspectRatio="xMidYMid"><defs><filter id="editing-vr"><feFlood flood-color="#f00" flood-opacity="0.7" result="c1"></feFlood><feFlood flood-color="#00f" flood-opacity="0.7" result="c3"></feFlood><feComposite operator="in" in="c1" in2="SourceAlpha" result="text-c1"></feComposite><feComposite operator="in" in="c3" in2="SourceAlpha" result="text-c3"></feComposite><feOffset in="text-c1" dx="5" dy="-1" result="text1"></feOffset><feOffset in="text-c3" dx="-5" dy="1" result="text3"></feOffset><feBlend in="SourceGraphic" in2="text1" mode="multiply" result="text4"></feBlend><feBlend in="text4" in2="text3" mode="multiply"></feBlend></filter></defs><g filter="url(#editing-vr)"><g transform="translate(139.45442414283752, 97.30499649047852)"><path d="M14.14 0L0.51 0L7.81-38.91L8.51-42.24L22.21-42.24L14.14 0ZM40.13-3.78L40.13-3.78L40.13-3.78Q38.40 1.28 31.74 1.28L31.74 1.28L31.74 1.28Q26.82 1.28 23.42-4.61L23.42-4.61L23.42-4.61Q19.97-10.50 19.33-20.10L19.33-20.10L19.33-20.10Q26.37-32.96 31.23-38.27L31.23-38.27L31.23-38.27Q35.90-43.33 40.77-43.33L40.77-43.33L40.77-43.33Q43.39-43.33 45.28-41.92L45.28-41.92L45.28-41.92Q47.17-40.51 47.62-38.27L47.62-38.27L47.62-38.27Q45.44-37.38 44.42-36.67L44.42-36.67L44.42-36.67Q41.86-34.75 38.40-30.46L38.40-30.46L32.58-23.49L32.58-23.49Q31.17-21.82 30.59-21.06L30.59-21.06L30.59-21.06Q31.55-15.68 34.43-10.37L34.43-10.37L34.43-10.37Q37.18-5.31 40.13-3.78ZM58.82 0L44.86 0L52.99-42.24L67.07-42.24L58.82 0ZM81.73 0L67.78 0L75.90-42.24L89.98-42.24L81.73 0ZM116.42-42.69L116.42-42.69L116.42-42.69Q132.10-42.69 132.10-31.62L132.10-31.62L132.10-31.62Q132.10-25.54 128.19-21.89L128.19-21.89L128.19-21.89Q124.35-18.24 117.63-18.24L117.63-18.24L117.63-18.24Q114.50-18.24 112.06-20.03L112.06-20.03L112.06-20.03Q110.91-20.80 110.14-21.82L110.14-21.82L110.14-21.82Q114.82-21.82 117.28-24.67L117.28-24.67L117.28-24.67Q119.74-27.52 119.74-33.09L119.74-33.09L119.74-33.09Q119.74-38.66 114.24-38.66L114.24-38.66L112.70-38.66L112.70-38.66Q112.32-38.66 112-38.59L112-38.59L104.64 0L90.75 0L98.62-41.92L98.62-41.92Q105.47-42.56 109.44-42.62L109.44-42.62L109.44-42.62Q113.41-42.69 116.42-42.69ZM159.74-9.86L159.74-9.86L159.74-9.86Q160.96-8.32 160.96-5.82L160.96-5.82L160.96-5.82Q160.96-2.37 158.40-0.54L158.40-0.54L158.40-0.54Q155.84 1.28 151.81 1.28L151.81 1.28L151.81 1.28Q149.50 1.28 145.98 0.77L145.98 0.77L145.98 0.77Q139.07-0.32 136.96-0.32L136.96-0.32L136.96-0.32Q134.85-0.32 134.02-0.22L134.02-0.22L134.02-0.22Q133.18-0.13 131.84 0L131.84 0L139.71-42.24L167.30-42.24L167.30-42.24Q167.30-38.34 165.41-36.29L165.41-36.29L165.41-36.29Q163.52-34.24 159.81-34.24L159.81-34.24L159.81-34.24Q156.10-34.24 152.32-35.97L152.32-35.97L150.34-24.77L161.73-24.77L161.73-24.77Q161.73-21.38 160.06-19.49L160.06-19.49L160.06-19.49Q158.40-17.60 155.62-17.60L155.62-17.60L155.62-17.60Q152.83-17.60 151.10-18.24L151.10-18.24L151.10-18.24Q149.38-18.88 149.18-19.07L149.18-19.07L146.88-6.98L146.88-6.98Q148.42-6.78 151.30-6.78L151.30-6.78L151.30-6.78Q156.22-6.78 159.74-9.86ZM193.60-9.86L193.60-9.86L193.60-9.86Q194.82-8.32 194.82-5.34L194.82-5.34L194.82-5.34Q194.82-2.37 192.54-0.54L192.54-0.54L192.54-0.54Q190.27 1.28 186.30 1.28L186.30 1.28L186.30 1.28Q184 1.28 180.42 0.77L180.42 0.77L180.42 0.77Q173.38-0.32 171.36-0.32L171.36-0.32L171.36-0.32Q169.34-0.32 168.51-0.22L168.51-0.22L168.51-0.22Q167.68-0.13 166.34 0L166.34 0L174.08-42.24L188.10-42.24L181.70-7.04L181.70-7.04Q182.53-6.91 183.30-6.91L183.30-6.91L184.90-6.91L184.90-6.91Q190.27-6.91 193.60-9.86ZM212.35 0L198.40 0L206.53-42.24L220.61-42.24L212.35 0Z" fill="#444"></path></g></g><style>text {
  font-size: 64px;
  font-family: Arial Black;
  dominant-baseline: central;
  text-anchor: middle;
}</style></svg>